<?xml version="1.0"?>
<svg version="1.1" xmlns="http://www.w3.org/2000/svg" width="200px" height="100px" style=""><path fill="#308ed1" d="M30.19140625,66.2890625q0-0.68359375,0.46875-0.869140625t1.015625-0.185546875q0.95703125,0,1.62109375,0.859375t1.259765625,1.884765625t1.181640625,1.884765625t1.38671875,0.859375q0.60546875,0,1.103515625-0.302734375t0.859375-0.76171875t0.556640625-1.03515625t0.1953125-1.142578125q0-1.484375-0.595703125-3.06640625t-1.5234375-3.26171875t-1.962890625-3.4375t-1.953125-3.57421875t-1.5234375-3.701171875t-0.60546875-3.798828125q0-2.87109375,1.71875-4.453125t4.53125-1.58203125q0.95703125,0,1.93359375,0.2734375t1.796875,0.8203125t1.337890625,1.34765625t0.517578125,1.875q0,0.3515625-0.517578125,0.458984375t-0.751953125,0.107421875q-0.3515625,0-0.76171875-0.087890625t-0.52734375-0.478515625t-0.33203125-0.8984375t-0.537109375-0.947265625t-0.76171875-0.76171875t-0.966796875-0.322265625q-0.87890625,0-1.494140625,0.361328125t-0.99609375,0.966796875t-0.56640625,1.357421875t-0.185546875,1.552734375q0,1.875,0.64453125,3.779296875t1.6015625,3.7890625t2.080078125,3.720703125t2.080078125,3.57421875t1.6015625,3.3984375t0.64453125,3.14453125q0,1.328125-0.625,2.24609375t-1.58203125,1.494140625t-2.119140625,0.83984375t-2.275390625,0.263671875q-1.19140625,0-2.44140625-0.478515625t-2.24609375-1.318359375t-1.640625-1.962890625t-0.64453125-2.431640625z M47.6849609375,46.513671875q-0.0390625-0.517578125,0.087890625-0.9765625t0.478515625-0.76171875t1.19140625-0.302734375q0.1953125,0,0.478515625,0.0390625t0.56640625,0.126953125t0.458984375,0.244140625t0.17578125,0.4296875q0,0.72265625,0.048828125,1.904296875t0.126953125,2.4609375t0.146484375,2.5t0.126953125,1.982421875q1.5234375-0.078125,3.06640625-0.078125t3.046875-0.078125l2.6953125-0.078125l0-1.93359375q0-3.2421875-0.126953125-6.494140625t-0.439453125-6.494140625q0-0.234375,0.1953125-0.380859375t0.458984375-0.224609375t0.546875-0.09765625t0.439453125-0.01953125q0.44921875,0,0.966796875,0.13671875t0.595703125,0.5859375l0.1171875,0.83984375q0.48828125,3.515625,0.6640625,6.953125t0.25390625,6.875q0.234375,0.0390625,0.498046875,0.126953125t0.537109375,0.166015625q0.1953125,0.078125,0.556640625,0.234375t0.361328125,0.48828125q0,0.3125-0.2734375,0.48828125t-0.615234375,0.263671875t-0.6640625,0.107421875t-0.400390625,0.01953125q0.0390625,1.4453125,0.0390625,2.880859375l0,2.880859375l0,6.30859375l0,3.515625q0,0.234375-0.224609375,0.419921875t-0.537109375,0.302734375t-0.654296875,0.15625t-0.615234375,0.0390625t-0.64453125-0.0390625t-0.6640625-0.15625t-0.517578125-0.29296875t-0.224609375-0.4296875l0-0.83984375q0.078125-3.7109375,0.17578125-7.353515625t0.1953125-7.314453125q-2.12890625,0.078125-4.326171875,0.09765625t-4.365234375,0.09765625q0.234375,2.75390625,0.537109375,5.498046875t0.634765625,5.498046875q0,0.234375-0.224609375,0.419921875t-0.52734375,0.302734375t-0.64453125,0.15625t-0.615234375,0.0390625q-0.56640625,0-1.240234375-0.1953125t-0.751953125-0.72265625q-0.234375-2.0703125-0.439453125-4.5703125t-0.361328125-5.107421875t-0.244140625-5.107421875t-0.087890625-4.53125q0-0.48828125-0.0390625-1.005859375z M70.002734375,67.890625q0.0390625-0.8203125,0.0390625-1.6015625q0-2.83203125,0.205078125-5.64453125t0.283203125-5.64453125q0.1171875-3.2421875,0.21484375-6.42578125t0.390625-6.40625q0.078125-0.80078125,0.458984375-1.044921875t1.142578125-0.244140625q0.3515625,0,0.9375,0.13671875t0.5859375,0.6640625q0.2734375,0.0390625,0.546875,0.0390625q0.41015625,0,0.83984375-0.078125q0.703125-0.1171875,1.435546875-0.263671875t1.455078125-0.283203125t1.38671875-0.13671875q0.15625,0,0.439453125,0.01953125t0.56640625,0.1171875t0.478515625,0.244140625t0.1953125,0.380859375t-0.458984375,0.419921875t-1.201171875,0.322265625t-1.6015625,0.234375t-1.6796875,0.166015625t-1.455078125,0.107421875t-0.908203125,0.0390625l-0.0390625,7.34375l0.0390625,3.65234375q0.60546875,0,1.81640625-0.0390625q0.48828125-0.01953125,0.9765625-0.01953125q0.7421875,0,1.5234375,0.0390625q1.2890625,0.05859375,2.32421875,0.234375t1.30859375,0.625q0,0.2734375-0.283203125,0.439453125t-0.634765625,0.244140625t-0.712890625,0.09765625t-0.517578125,0.01953125q-1.4453125,0-2.91015625-0.05859375t-2.890625-0.234375q0,2.40234375-0.126953125,4.765625t-0.126953125,4.765625q0,1.03515625,0.01953125,2.041015625t0.234375,2.001953125q0.52734375-0.0390625,1.142578125-0.09765625t1.25-0.146484375t1.220703125-0.146484375t1.015625-0.05859375q0.234375,0,0.634765625,0.05859375t0.8203125,0.1953125t0.72265625,0.341796875t0.302734375,0.478515625q0,0.3125-0.576171875,0.556640625t-1.474609375,0.390625t-1.962890625,0.205078125t-2.060546875,0.078125t-1.796875,0.01953125l-1.1328125,0q-1.07421875,0-1.572265625-0.400390625t-0.693359375-1.044921875q-0.15625-0.52734375-0.13671875-1.19140625l0-0.2734375z M86.2853515625,51.23046875q0-0.76171875,0.048828125-2.236328125t0.146484375-3.076171875t0.25390625-2.998046875t0.44921875-2.001953125q0.15625-0.3125,0.478515625-0.419921875t0.634765625-0.107421875q0.1953125,0,0.654296875,0.107421875t0.458984375,0.419921875q0,0.48828125-0.1171875,1.845703125t-0.21484375,3.115234375t-0.13671875,3.65234375l0,0.83984375q0,1.42578125,0.09765625,2.67578125q0.13671875,1.6015625,0.517578125,2.63671875t1.142578125,1.03515625q1.03515625,0,1.93359375-0.615234375t1.640625-1.6015625t1.337890625-2.20703125t1.015625-2.40234375t0.703125-2.177734375t0.400390625-1.5625q0.1171875-0.64453125,0.205078125-1.71875t0.283203125-2.109375t0.693359375-1.796875t1.455078125-0.76171875q0.56640625,0,1.083984375,0.1953125t0.673828125,0.83984375q-0.3125,1.19140625-0.52734375,3.310546875t-0.341796875,4.443359375t-0.185546875,4.501953125t-0.05859375,3.544921875q0,1.5234375,0.0390625,3.720703125t0.13671875,4.541015625t0.224609375,4.560546875t0.283203125,3.701171875q0.15625,0.3125,0.15625,0.72265625q0,0.48828125-0.1953125,0.76171875t-0.537109375,0.41015625t-0.7421875,0.17578125t-0.771484375,0.0390625q-0.56640625,0-1.259765625-0.1953125t-0.849609375-0.80078125q-0.1953125-0.72265625-0.322265625-1.904296875t-0.185546875-2.578125t-0.09765625-2.919921875t-0.0390625-2.919921875t0.01953125-2.59765625t0.01953125-1.962890625q0-1.484375,0.05859375-2.919921875t0.13671875-2.919921875q-0.48828125,0.99609375-1.142578125,2.021484375t-1.494140625,1.865234375t-1.875,1.376953125t-2.24609375,0.537109375q-1.5625,0-2.3828125-0.83984375t-1.19140625-2.080078125t-0.419921875-2.63671875t-0.048828125-2.529296875z M113.7333984375,45.234375q0-0.91796875,0.048828125-1.81640625t0.166015625-1.77734375q0.078125-0.44921875,0.693359375-0.64453125t1.025390625-0.1953125l0.46875,0.0390625q0.56640625,0.078125,1.142578125-0.078125t1.142578125-0.15625q1.328125,0,2.96875,0.29296875t3.076171875,0.99609375t2.412109375,1.845703125t0.9765625,2.822265625t-1.015625,3.134765625t-2.55859375,2.55859375t-3.3203125,1.728515625t-3.26171875,0.625q0.15625,3.76953125,0.439453125,7.48046875t0.966796875,7.421875l0.0390625,0.25390625q0,0.2734375-0.244140625,0.44921875t-0.576171875,0.283203125t-0.673828125,0.146484375t-0.556640625,0.0390625q-0.48828125,0-1.181640625-0.185546875t-0.849609375-0.732421875q-0.44921875-1.71875-0.703125-3.779296875t-0.37109375-4.306640625t-0.166015625-4.521484375t-0.048828125-4.443359375l0-4.39453125q0-0.72265625-0.01953125-1.50390625t-0.01953125-1.58203125z M117.4248046875,42.0703125q0,2.67578125,0.05859375,5.341796875t0.13671875,5.341796875q1.15234375-0.234375,2.353515625-0.830078125t2.16796875-1.416015625t1.5625-1.865234375t0.595703125-2.197265625q0-1.03515625-0.517578125-1.85546875t-1.337890625-1.40625q-0.80078125-0.56640625-1.81640625-0.87890625q-0.8984375-0.2734375-1.7578125-0.2734375l-0.21484375,0z M131.851953125,56.19140625q0-1.15234375,0.126953125-2.79296875t0.46875-3.41796875t0.91796875-3.53515625t1.474609375-3.10546875t2.1484375-2.12890625q1.03515625-0.64453125,2.3828125-0.64453125q0.2734375,0,0.56640625,0.0390625q3.3984375,0.3125,5.224609375,1.552734375t2.666015625,3.14453125t0.9765625,4.3359375t0.13671875,5.126953125q0,2.16796875-0.400390625,4.716796875t-1.416015625,4.755859375t-2.802734375,3.681640625t-4.541015625,1.474609375q-1.6796875,0-2.939453125-0.615234375t-2.138671875-1.640625t-1.4453125-2.3828125t-0.859375-2.8125t-0.419921875-2.939453125t-0.126953125-2.8125z M135.816796875,55.3125q0,0.83984375,0.01953125,2.060546875t0.166015625,2.568359375t0.380859375,2.685546875t0.693359375,2.431640625t1.162109375,1.796875t1.69921875,0.7421875l0.09765625,0q0.8984375,0,1.6015625-0.68359375q0.7421875-0.72265625,1.318359375-1.73828125t0.99609375-2.138671875t0.751953125-1.923828125l-0.078125,0.17578125q0.56640625-1.796875,0.76171875-3.681640625t0.1953125-3.720703125q0-0.87890625-0.1171875-2.119140625t-0.380859375-2.587890625t-0.68359375-2.666015625t-1.064453125-2.294921875t-1.50390625-1.484375q-0.625-0.37109375-1.38671875-0.390625q-0.29296875,0-0.5859375,0.05859375q-0.99609375,0.1953125-1.69921875,0.9765625t-1.142578125,1.923828125t-0.673828125,2.5t-0.361328125,2.734375t-0.146484375,2.63671875t-0.01953125,2.138671875z M144.625390625,61.328125l0-0.0390625l0,0.0390625z M152.9783203125,66.2890625q0-0.68359375,0.46875-0.869140625t1.015625-0.185546875q0.95703125,0,1.62109375,0.859375t1.259765625,1.884765625t1.181640625,1.884765625t1.38671875,0.859375q0.60546875,0,1.103515625-0.302734375t0.859375-0.76171875t0.556640625-1.03515625t0.1953125-1.142578125q0-1.484375-0.595703125-3.06640625t-1.5234375-3.26171875t-1.962890625-3.4375t-1.953125-3.57421875t-1.5234375-3.701171875t-0.60546875-3.798828125q0-2.87109375,1.71875-4.453125t4.53125-1.58203125q0.95703125,0,1.93359375,0.2734375t1.796875,0.8203125t1.337890625,1.34765625t0.517578125,1.875q0,0.3515625-0.517578125,0.458984375t-0.751953125,0.107421875q-0.3515625,0-0.76171875-0.087890625t-0.52734375-0.478515625t-0.33203125-0.8984375t-0.537109375-0.947265625t-0.76171875-0.76171875t-0.966796875-0.322265625q-0.87890625,0-1.494140625,0.361328125t-0.99609375,0.966796875t-0.56640625,1.357421875t-0.185546875,1.552734375q0,1.875,0.64453125,3.779296875t1.6015625,3.7890625t2.080078125,3.720703125t2.080078125,3.57421875t1.6015625,3.3984375t0.64453125,3.14453125q0,1.328125-0.625,2.24609375t-1.58203125,1.494140625t-2.119140625,0.83984375t-2.275390625,0.263671875q-1.19140625,0-2.44140625-0.478515625t-2.24609375-1.318359375t-1.640625-1.962890625t-0.64453125-2.431640625z"/><path fill="#" d=""/></svg>
